<?xml version="1.0" ?><svg enable-background="new 0 0 24 24" id="Layer_1" version="1.1" viewBox="0 0 24 24" xml:space="preserve" xmlns="http://www.w3.org/2000/svg" xmlns:xlink="http://www.w3.org/1999/xlink"><g><path d="M23.5,16H17V8h6.5C23.7763672,8,24,7.7763672,24,7.5S23.7763672,7,23.5,7H17V0.5   C17,0.2236328,16.7763672,0,16.5,0S16,0.2236328,16,0.5V7H8V0.5C8,0.2236328,7.7763672,0,7.5,0S7,0.2236328,7,0.5V7H0.5   C0.2236328,7,0,7.2236328,0,7.5S0.2236328,8,0.5,8H7v8H0.5C0.2236328,16,0,16.2236328,0,16.5S0.2236328,17,0.5,17H7v6.5   C7,23.7763672,7.2236328,24,7.5,24S8,23.7763672,8,23.5V17h8v6.5c0,0.2763672,0.2236328,0.5,0.5,0.5s0.5-0.2236328,0.5-0.5V17h6.5   c0.2763672,0,0.5-0.2236328,0.5-0.5S23.7763672,16,23.5,16z M8,16V8h8v8H8z" fill="#303C42"/><path d="M12,9c-1.6542969,0-3,1.3457031-3,3s1.3457031,3,3,3s3-1.3457031,3-3S13.6542969,9,12,9z M12,14   c-1.1025391,0-2-0.8974609-2-2s0.8974609-2,2-2s2,0.8974609,2,2S13.1025391,14,12,14z" fill="#7CB342"/><path d="M1.1464844,5.8535156C1.2441406,5.9511719,1.3720703,6,1.5,6s0.2558594-0.0488281,0.3535156-0.1464844   L3.5,4.2070312l1.6464844,1.6464844C5.2441406,5.9511719,5.3720703,6,5.5,6s0.2558594-0.0488281,0.3535156-0.1464844   c0.1953125-0.1953125,0.1953125-0.5117188,0-0.7070312L4.2070312,3.5l1.6464844-1.6464844   c0.1953125-0.1953125,0.1953125-0.5117188,0-0.7070312s-0.5117188-0.1953125-0.7070312,0L3.5,2.7929688L1.8535156,1.1464844   c-0.1953125-0.1953125-0.5117188-0.1953125-0.7070312,0s-0.1953125,0.5117188,0,0.7070312L2.7929688,3.5L1.1464844,5.1464844   C0.9511719,5.3417969,0.9511719,5.6582031,1.1464844,5.8535156z" fill="#D32F2F"/><path d="M22.8535156,18.1464844c-0.1953125-0.1953125-0.5117188-0.1953125-0.7070312,0L20.5,19.7929688   l-1.6464844-1.6464844c-0.1953125-0.1953125-0.5117188-0.1953125-0.7070312,0s-0.1953125,0.5117188,0,0.7070312L19.7929688,20.5   l-1.6464844,1.6464844c-0.1953125,0.1953125-0.1953125,0.5117188,0,0.7070312C18.2441406,22.9511719,18.3720703,23,18.5,23   s0.2558594-0.0488281,0.3535156-0.1464844L20.5,21.2070312l1.6464844,1.6464844C22.2441406,22.9511719,22.3720703,23,22.5,23   s0.2558594-0.0488281,0.3535156-0.1464844c0.1953125-0.1953125,0.1953125-0.5117188,0-0.7070312L21.2070312,20.5   l1.6464844-1.6464844C23.0488281,18.6582031,23.0488281,18.3417969,22.8535156,18.1464844z" fill="#D32F2F"/><linearGradient gradientUnits="userSpaceOnUse" id="SVGID_1_" x1="-1.099619" x2="25.0996189" y1="5.8915472" y2="18.1084518"><stop offset="0" style="stop-color:#FFFFFF;stop-opacity:0.2"/><stop offset="1" style="stop-color:#FFFFFF;stop-opacity:0"/></linearGradient><path d="M23.5,16H17V8h6.5C23.7763672,8,24,7.7763672,24,7.5S23.7763672,7,23.5,7H17V0.5   C17,0.2236328,16.7763672,0,16.5,0S16,0.2236328,16,0.5V7H8V0.5C8,0.2236328,7.7763672,0,7.5,0S7,0.2236328,7,0.5V7H0.5   C0.2236328,7,0,7.2236328,0,7.5S0.2236328,8,0.5,8H7v8H0.5C0.2236328,16,0,16.2236328,0,16.5S0.2236328,17,0.5,17H7v6.5   C7,23.7763672,7.2236328,24,7.5,24S8,23.7763672,8,23.5V17h8v6.5c0,0.2763672,0.2236328,0.5,0.5,0.5s0.5-0.2236328,0.5-0.5V17h6.5   c0.2763672,0,0.5-0.2236328,0.5-0.5S23.7763672,16,23.5,16z M16,16H8V8h8V16z M12,15c1.6542969,0,3-1.3457031,3-3s-1.3457031-3-3-3   s-3,1.3457031-3,3S10.3457031,15,12,15z M12,10c1.1025391,0,2,0.8974609,2,2s-0.8974609,2-2,2s-2-0.8974609-2-2   S10.8974609,10,12,10z M1.1464844,5.8535156C1.2441406,5.9511719,1.3720703,6,1.5,6s0.2558594-0.0488281,0.3535156-0.1464844   L3.5,4.2070312l1.6464844,1.6464844C5.2441406,5.9511719,5.3720703,6,5.5,6s0.2558594-0.0488281,0.3535156-0.1464844   c0.1953125-0.1953125,0.1953125-0.5117188,0-0.7070312L4.2070312,3.5l1.6464844-1.6464844   c0.1953125-0.1953125,0.1953125-0.5117188,0-0.7070312s-0.5117188-0.1953125-0.7070312,0L3.5,2.7929688L1.8535156,1.1464844   c-0.1953125-0.1953125-0.5117188-0.1953125-0.7070312,0s-0.1953125,0.5117188,0,0.7070312L2.7929688,3.5L1.1464844,5.1464844   C0.9511719,5.3417969,0.9511719,5.6582031,1.1464844,5.8535156z M22.8535156,18.1464844   c-0.1953125-0.1953125-0.5117188-0.1953125-0.7070312,0L20.5,19.7929688l-1.6464844-1.6464844   c-0.1953125-0.1953125-0.5117188-0.1953125-0.7070312,0s-0.1953125,0.5117188,0,0.7070312L19.7929688,20.5l-1.6464844,1.6464844   c-0.1953125,0.1953125-0.1953125,0.5117188,0,0.7070312C18.2441406,22.9511719,18.3720703,23,18.5,23   s0.2558594-0.0488281,0.3535156-0.1464844L20.5,21.2070312l1.6464844,1.6464844C22.2441406,22.9511719,22.3720703,23,22.5,23   s0.2558594-0.0488281,0.3535156-0.1464844c0.1953125-0.1953125,0.1953125-0.5117188,0-0.7070312L21.2070312,20.5   l1.6464844-1.6464844C23.0488281,18.6582031,23.0488281,18.3417969,22.8535156,18.1464844z" fill="url(#SVGID_1_)"/></g><g/><g/><g/><g/><g/><g/><g/><g/><g/><g/><g/><g/><g/><g/><g/></svg>